<svg width="39" height="39" viewBox="0 0 39 39" fill="none" xmlns="http://www.w3.org/2000/svg">
<rect x="0.75" y="0.75" width="37.5" height="37.5" rx="18.75" stroke="#112D63" stroke-width="1.5"/>
<path d="M28.5 19.5548C28.5 14.5527 24.4718 10.5 19.5 10.5C14.5282 10.5 10.5 14.5527 10.5 19.5548C10.5 24.0741 13.7912 27.8202 18.0937 28.5V22.1723H15.8075V19.5548H18.0937V17.5598C18.0937 15.2906 19.4365 14.0372 21.4931 14.0372C22.478 14.0372 23.5079 14.2139 23.5079 14.2139V16.4411H22.3727C21.255 16.4411 20.9062 17.1392 20.9062 17.8552V19.5548H23.4023L23.0031 22.1723H20.9062V28.5C25.2088 27.8202 28.5 24.0741 28.5 19.5548Z" fill="#112D63"/>
</svg>
