<svg xmlns="http://www.w3.org/2000/svg" width="50" height="51" viewBox="0 0 50 51" fill="none">
<rect x="1" y="1.38965" width="48" height="48" rx="24" stroke="#112D63" stroke-width="1.5"/>
<path fill-rule="evenodd" clip-rule="evenodd" d="M33.5805 16.6998C31.2891 14.4029 28.2375 13.1396 24.9945 13.1396C18.3008 13.1396 12.8539 18.5865 12.8539 25.2803C12.8539 27.4186 13.4117 29.5076 14.4727 31.3506L12.75 37.6396L19.1867 35.9498C20.9586 36.9178 22.9547 37.4264 24.9891 37.4264H24.9945C31.6828 37.4264 37.25 31.9795 37.25 25.2857C37.25 22.0428 35.8719 18.9967 33.5805 16.6998ZM24.9945 35.3811C23.1789 35.3811 21.4016 34.8943 19.8539 33.9756L19.4875 33.7568L15.6703 34.7576L16.6875 31.0334L16.4469 30.6506C15.4352 29.0428 14.9047 27.1889 14.9047 25.2803C14.9047 19.7186 19.4328 15.1904 25 15.1904C27.6961 15.1904 30.2281 16.2404 32.1313 18.149C34.0344 20.0576 35.2047 22.5896 35.1992 25.2857C35.1992 30.8529 30.5562 35.3811 24.9945 35.3811ZM30.5289 27.8232C30.2281 27.6701 28.7352 26.9373 28.4563 26.8389C28.1773 26.735 27.975 26.6857 27.7727 26.992C27.5703 27.2982 26.9906 27.9764 26.8102 28.1842C26.6352 28.3865 26.4547 28.4139 26.1539 28.2607C24.3711 27.3693 23.2008 26.6693 22.025 24.6514C21.7133 24.1154 22.3367 24.1537 22.9164 22.9943C23.0148 22.792 22.9656 22.617 22.8891 22.4639C22.8125 22.3107 22.2055 20.8178 21.9539 20.2107C21.7078 19.6201 21.4563 19.7021 21.2703 19.6912C21.0953 19.6803 20.893 19.6803 20.6906 19.6803C20.4883 19.6803 20.1602 19.7568 19.8812 20.0576C19.6023 20.3639 18.8203 21.0967 18.8203 22.5896C18.8203 24.0826 19.9086 25.5264 20.0563 25.7287C20.2094 25.9311 22.1945 28.9936 25.2406 30.3115C27.1656 31.1428 27.9203 31.2139 28.8828 31.0717C29.468 30.9842 30.6766 30.3389 30.9281 29.6279C31.1797 28.917 31.1797 28.31 31.1031 28.1842C31.032 28.0475 30.8297 27.9709 30.5289 27.8232Z" fill="#112D63"/>
</svg>