<svg xmlns="http://www.w3.org/2000/svg" width="24" height="24" viewBox="0 0 24 24" fill="none">
  <path d="M9.1875 4.9H14.8125C14.9844 4.9 15.125 5.0425 15.125 5.21667V6.8H8.875V5.21667C8.875 5.0425 9.01562 4.9 9.1875 4.9ZM7 5.21667V6.8H4.5C3.12109 6.8 2 7.93604 2 9.33333V13.1333H9.5H14.5H22V9.33333C22 7.93604 20.8789 6.8 19.5 6.8H17V5.21667C17 3.99354 16.0195 3 14.8125 3H9.1875C7.98047 3 7 3.99354 7 5.21667ZM22 14.4H14.5V15.6667C14.5 16.3673 13.9414 16.9333 13.25 16.9333H10.75C10.0586 16.9333 9.5 16.3673 9.5 15.6667V14.4H2V19.4667C2 20.864 3.12109 22 4.5 22H19.5C20.8789 22 22 20.864 22 19.4667V14.4Z" fill="#E40521"/>
</svg>