<svg width="13" height="14" viewBox="0 0 13 14" fill="none" xmlns="http://www.w3.org/2000/svg">
<path d="M3.89707 0.483984L3.7002 0.875H1.0752C0.591211 0.875 0.200195 1.26602 0.200195 1.75C0.200195 2.23398 0.591211 2.625 1.0752 2.625H11.5752C12.0592 2.625 12.4502 2.23398 12.4502 1.75C12.4502 1.26602 12.0592 0.875 11.5752 0.875H8.9502L8.75332 0.483984C8.60566 0.185938 8.30215 0 7.97129 0H4.6791C4.34824 0 4.04473 0.185938 3.89707 0.483984ZM11.5752 3.5H1.0752L1.65488 12.7695C1.69863 13.4613 2.27285 14 2.96465 14H9.68574C10.3775 14 10.9518 13.4613 10.9955 12.7695L11.5752 3.5Z" fill="#003A61"/>
</svg>
