<svg width="78" height="35" viewBox="0 0 78 35" fill="none" xmlns="http://www.w3.org/2000/svg">
<path d="M13.4835 13.9671C14.3029 13.9671 14.9671 13.3029 14.9671 12.4835C14.9671 11.6642 14.3029 11 13.4835 11C12.6642 11 12 11.6642 12 12.4835C12 13.3029 12.6642 13.9671 13.4835 13.9671Z" fill="#6ec1e4"/>
<path d="M14.7198 14.958H12.2473C12.1108 14.958 12 15.0688 12 15.2053V22.623C12 22.7595 12.1108 22.8703 12.2473 22.8703H14.7198C14.8563 22.8703 14.9671 22.7595 14.9671 22.623V15.2053C14.9671 15.0688 14.8563 14.958 14.7198 14.958Z" fill="#6ec1e4"/>
<path d="M22.0876 14.5469C21.0308 14.1849 19.7089 14.5029 18.9162 15.0731C18.889 14.9667 18.7921 14.8876 18.6769 14.8876H16.2043C16.0678 14.8876 15.957 14.9984 15.957 15.1349V22.5526C15.957 22.6891 16.0678 22.7999 16.2043 22.7999H18.6769C18.8134 22.7999 18.9241 22.6891 18.9241 22.5526V17.2217C19.3237 16.8775 19.8385 16.7678 20.2598 16.9468C20.6683 17.1194 20.9022 17.5407 20.9022 18.102V22.5526C20.9022 22.6891 21.013 22.7999 21.1495 22.7999H23.622C23.7585 22.7999 23.8693 22.6891 23.8693 22.5526V17.604C23.8411 15.572 22.8852 14.8199 22.0876 14.5469Z" fill="#6ec1e4"/>
</svg>
