<svg width="24" height="24" viewBox="0 0 24 24" fill="none" xmlns="http://www.w3.org/2000/svg">
<g id="Quotes">
<path id="quotation-mark 1 (Traced)" fill-rule="evenodd" clip-rule="evenodd" d="M3.32576 5.54053C3.27655 5.69143 0.800049 18.4679 0.800049 18.571C0.800049 18.6052 2.0911 18.6197 3.66904 18.6032L6.53803 18.5732L9.27451 12.0295C10.7796 8.43048 12.011 5.46653 12.011 5.4431C12.011 5.41956 10.0671 5.40039 7.6913 5.40039C4.33463 5.40039 3.3613 5.43167 3.32576 5.54053ZM14.5334 5.54053C14.4785 5.69782 12.011 18.4262 12.011 18.5524C12.011 18.5968 13.3021 18.6197 14.8803 18.6032L17.7496 18.5732L20.4858 12.015C21.9906 8.40795 23.2219 5.444 23.2219 5.42853C23.2219 5.41306 21.2781 5.40039 18.9022 5.40039C15.5472 5.40039 14.5716 5.43167 14.5334 5.54053Z" fill="#6EC1E4"/>
</g>
</svg>
