<svg width="74" height="12" viewBox="0 0 74 12" fill="none" xmlns="http://www.w3.org/2000/svg">
<g clip-path="url(#clip0_138_2)">
<path d="M6.22121 0.496304C6.38451 -0.00629574 7.09561 -0.00629574 7.25891 0.496304L8.33231 3.8C8.40531 4.0247 8.61481 4.1769 8.85111 4.1769H12.3247C12.8532 4.1769 13.0729 4.8532 12.6454 5.1638L9.83521 7.20551C9.64401 7.34451 9.56401 7.5907 9.63701 7.8155L10.7104 11.1191C10.8737 11.6217 10.2985 12.0396 9.87091 11.729L7.06071 9.68731C6.86951 9.54841 6.61061 9.54841 6.41941 9.68731L3.60921 11.729C3.18161 12.0396 2.60641 11.6217 2.76971 11.1191L3.84311 7.8155C3.91611 7.5907 3.83611 7.34451 3.64491 7.20551L0.834712 5.1638C0.407112 4.8532 0.626911 4.1769 1.15531 4.1769H4.62901C4.86531 4.1769 5.07481 4.0247 5.14781 3.8L6.22121 0.496304Z" fill="#6EC1E4"/>
<path d="M21.4966 0.496304C21.6599 -0.00629574 22.371 -0.00629574 22.5343 0.496304L23.6077 3.8C23.6807 4.0247 23.8902 4.1769 24.1265 4.1769H27.6001C28.1286 4.1769 28.3483 4.8532 27.9208 5.1638L25.1106 7.20551C24.9194 7.34451 24.8394 7.5907 24.9124 7.8155L25.9858 11.1191C26.1491 11.6217 25.5739 12.0396 25.1463 11.729L22.3361 9.68731C22.1449 9.54841 21.886 9.54841 21.6948 9.68731L18.8845 11.729C18.457 12.0396 17.8817 11.6217 18.0451 11.1191L19.1185 7.8155C19.1915 7.5907 19.1115 7.34451 18.9203 7.20551L16.1101 5.1638C15.6825 4.8532 15.9022 4.1769 16.4307 4.1769H19.9043C20.1407 4.1769 20.3501 4.0247 20.4232 3.8L21.4966 0.496304Z" fill="#6EC1E4"/>
<path d="M36.7715 0.496304C36.9348 -0.00629574 37.6459 -0.00629574 37.8092 0.496304L38.8826 3.8C38.9556 4.0247 39.1651 4.1769 39.4014 4.1769H42.875C43.4035 4.1769 43.6232 4.8532 43.1957 5.1638L40.3855 7.20551C40.1943 7.34451 40.1143 7.5907 40.1873 7.8155L41.2607 11.1191C41.424 11.6217 40.8488 12.0396 40.4212 11.729L37.611 9.68731C37.4198 9.54841 37.1609 9.54841 36.9697 9.68731L34.1594 11.729C33.7319 12.0396 33.1566 11.6217 33.32 11.1191L34.3934 7.8155C34.4664 7.5907 34.3864 7.34451 34.1952 7.20551L31.385 5.1638C30.9574 4.8532 31.1772 4.1769 31.7056 4.1769H35.1792C35.4156 4.1769 35.6251 4.0247 35.6981 3.8L36.7715 0.496304Z" fill="#6EC1E4"/>
<path d="M52.046 0.496304C52.21 -0.00629574 52.921 -0.00629574 53.084 0.496304L54.157 3.8C54.231 4.0247 54.44 4.1769 54.676 4.1769H58.15C58.678 4.1769 58.898 4.8532 58.471 5.1638L55.66 7.20551C55.469 7.34451 55.389 7.5907 55.462 7.8155L56.536 11.1191C56.699 11.6217 56.124 12.0396 55.696 11.729L52.886 9.68731C52.695 9.54841 52.436 9.54841 52.245 9.68731L49.434 11.729C49.007 12.0396 48.432 11.6217 48.595 11.1191L49.668 7.8155C49.741 7.5907 49.661 7.34451 49.47 7.20551L46.66 5.1638C46.232 4.8532 46.452 4.1769 46.981 4.1769H50.454C50.69 4.1769 50.9 4.0247 50.973 3.8L52.046 0.496304Z" fill="#6EC1E4"/>
<path d="M67.3211 0.496304C67.4851 -0.00629574 68.1961 -0.00629574 68.3591 0.496304L69.4321 3.8C69.5051 4.0247 69.7151 4.1769 69.9511 4.1769H73.4251C73.9531 4.1769 74.1731 4.8532 73.7451 5.1638L70.9351 7.20551C70.7441 7.34451 70.6641 7.5907 70.7371 7.8155L71.8111 11.1191C71.9741 11.6217 71.3991 12.0396 70.9711 11.729L68.1611 9.68731C67.9701 9.54841 67.7111 9.54841 67.5191 9.68731L64.7091 11.729C64.2821 12.0396 63.7061 11.6217 63.8701 11.1191L64.9431 7.8155C65.0161 7.5907 64.9361 7.34451 64.7451 7.20551L61.9351 5.1638C61.5071 4.8532 61.7271 4.1769 62.2551 4.1769H65.7291C65.9651 4.1769 66.1751 4.0247 66.2481 3.8L67.3211 0.496304Z" fill="#6EC1E4"/>
</g>
<defs>
<clipPath id="clip0_138_2">
<rect width="74" height="12" fill="white"/>
</clipPath>
</defs>
</svg>
