<svg xmlns="http://www.w3.org/2000/svg" width="16" height="19" viewBox="0 0 16 19" fill="none">
  <path d="M8.9875 18.5731C11.125 16.1845 16 10.3953 16 7.14349C16 3.19969 12.4167 0 8 0C3.58333 0 0 3.19969 0 7.14349C0 10.3953 4.875 16.1845 7.0125 18.5731C7.525 19.1423 8.475 19.1423 8.9875 18.5731ZM8 4.76232C8.70724 4.76232 9.38552 5.0132 9.88562 5.45975C10.3857 5.9063 10.6667 6.51196 10.6667 7.14349C10.6667 7.77501 10.3857 8.38067 9.88562 8.82722C9.38552 9.27378 8.70724 9.52465 8 9.52465C7.29276 9.52465 6.61448 9.27378 6.11438 8.82722C5.61428 8.38067 5.33333 7.77501 5.33333 7.14349C5.33333 6.51196 5.61428 5.9063 6.11438 5.45975C6.61448 5.0132 7.29276 4.76232 8 4.76232Z" fill="#003a61"/>
</svg>