<svg width="39" height="39" viewBox="0 0 39 39" fill="none" xmlns="http://www.w3.org/2000/svg">
<rect x="0.75" y="0.75" width="37.5" height="37.5" rx="18.75" stroke="#112D63" stroke-width="1.5"/>
<path d="M26.8571 11H13.1393C12.5107 11 12 11.5179 12 12.1536V25.8464C12 26.4821 12.5107 27 13.1393 27H26.8571C27.4857 27 28 26.4821 28 25.8464V12.1536C28 11.5179 27.4857 11 26.8571 11ZM16.8357 24.7143H14.4643V17.0786H16.8393V24.7143H16.8357ZM15.65 16.0357C14.8893 16.0357 14.275 15.4179 14.275 14.6607C14.275 13.9036 14.8893 13.2857 15.65 13.2857C16.4071 13.2857 17.025 13.9036 17.025 14.6607C17.025 15.4214 16.4107 16.0357 15.65 16.0357ZM25.725 24.7143H23.3536V21C23.3536 20.1143 23.3357 18.975 22.1214 18.975C20.8857 18.975 20.6964 19.9393 20.6964 20.9357V24.7143H18.325V17.0786H20.6V18.1214H20.6321C20.95 17.5214 21.725 16.8893 22.8786 16.8893C25.2786 16.8893 25.725 18.4714 25.725 20.5286V24.7143Z" fill="#112D63"/>
</svg>
