<svg xmlns="http://www.w3.org/2000/svg" width="24" height="25" viewBox="0 0 24 25" fill="none">
  <path d="M19.5297 7.34996C19.8187 7.62318 19.9874 7.99999 19.9986 8.39754C20.0099 8.79509 19.8628 9.18083 19.5897 9.46996L11.0897 18.47C10.9519 18.6156 10.7864 18.7321 10.6028 18.8126C10.4193 18.8932 10.2215 18.9361 10.021 18.9389C9.8206 18.9417 9.62165 18.9043 9.43592 18.8289C9.2502 18.7535 9.08146 18.6417 8.93969 18.5L4.43969 14C4.17473 13.7156 4.03049 13.3395 4.03734 12.9509C4.0442 12.5623 4.20162 12.1915 4.47645 11.9167C4.75128 11.6419 5.12205 11.4845 5.51065 11.4776C5.89925 11.4708 6.27534 11.615 6.55969 11.88L9.96969 15.288L17.4097 7.40996C17.6829 7.12095 18.0597 6.95228 18.4573 6.94103C18.8548 6.92978 19.2406 7.07687 19.5297 7.34996Z" fill="#6EC1E4"/>
</svg>