<svg xmlns="http://www.w3.org/2000/svg" width="24" height="24" viewBox="0 0 24 24" fill="none">
  <path d="M12.9138 2.52319C12.5067 1.8256 11.4933 1.8256 11.0862 2.52319L8.21869 7.43601C8.01756 7.78061 7.6699 8.01578 7.27364 8.07528L1.89979 8.88218C0.997219 9.01771 0.680619 10.1506 1.38353 10.7296L5.38682 14.0269C5.75739 14.3321 5.93164 14.8135 5.84162 15.2835L4.79442 20.7507C4.62888 21.615 5.5415 22.2865 6.32454 21.8766L11.3847 19.2278C11.7698 19.0262 12.2302 19.0262 12.6153 19.2278L17.6755 21.8766C18.4585 22.2865 19.3711 21.615 19.2056 20.7507L18.1584 15.2835C18.0684 14.8135 18.2426 14.3321 18.6132 14.0269L22.6165 10.7296C23.3194 10.1506 23.0028 9.01771 22.1002 8.88218L16.7264 8.07528C16.3301 8.01578 15.9824 7.78061 15.7813 7.43601L12.9138 2.52319Z" fill="#E40521"/>
</svg>