<svg xmlns="http://www.w3.org/2000/svg" width="28" height="20" viewBox="0 0 28 20" fill="none">
  <path d="M14.0003 0C13.646 0 13.296 0.0624877 12.9635 0.183L0.691907 4.70443C0.276292 4.86065 0.000673396 5.26236 0.000673396 5.71317C0.000673396 6.16397 0.276292 6.56568 0.691907 6.7219L3.22497 7.65475C2.50749 8.80631 2.10062 10.1677 2.10062 11.6004V12.8546C2.10062 14.1222 1.62813 15.43 1.12502 16.4611C0.840653 17.0413 0.516911 17.6126 0.14067 18.1393C0.000673397 18.3312 -0.0387007 18.5812 0.0400474 18.8088C0.118796 19.0364 0.302541 19.2061 0.530036 19.2641L3.32997 19.9782C3.51371 20.0273 3.71058 19.9916 3.87246 19.889C4.03433 19.7863 4.14807 19.6167 4.18307 19.4248C4.55931 17.5144 4.37119 15.8005 4.0912 14.573C3.9512 13.9392 3.76308 13.292 3.50059 12.6984V11.6004C3.50059 10.2525 3.94683 8.98038 4.72118 7.96273C5.28555 7.2709 6.01615 6.71297 6.87363 6.36929L13.7422 3.61536C14.101 3.47253 14.5078 3.65107 14.6478 4.01707C14.7878 4.38307 14.6128 4.79817 14.2541 4.941L7.3855 7.69492C6.84301 7.91363 6.36615 8.24838 5.97678 8.65902L12.9591 11.2299C13.2916 11.3505 13.6416 11.4129 13.996 11.4129C14.3503 11.4129 14.7003 11.3505 15.0328 11.2299L27.3088 6.7219C27.7244 6.57014 28 6.16397 28 5.71317C28 5.26236 27.7244 4.86065 27.3088 4.70443L15.0372 0.183C14.7047 0.0624877 14.3547 0 14.0003 0ZM5.60054 16.7824C5.60054 18.358 9.36295 19.9961 14.0003 19.9961C18.6377 19.9961 22.4001 18.358 22.4001 16.7824L21.7308 10.2926L15.5097 12.5868C15.0241 12.7654 14.5122 12.8546 14.0003 12.8546C13.4885 12.8546 12.9722 12.7654 12.491 12.5868L6.2699 10.2926L5.60054 16.7824Z" fill="#E40521"/>
</svg>