<svg width="259" height="112" viewBox="0 0 259 112" fill="none" xmlns="http://www.w3.org/2000/svg">
<path d="M83.1385 87.7654H71.3253V108.829H42.6837V87.7654H0V66.2487L44.5783 0H71.3253V65.7958H83.1385V87.7654ZM42.6837 65.7958V53.1122C42.6837 50.7341 42.7952 47.5632 42.9066 43.4863C43.1295 39.4095 43.241 37.3711 43.3524 37.1446H42.5723C40.9006 40.9949 39.006 44.5056 36.8886 47.9029L25.0753 65.7958H42.6837Z" fill="white"/>
<path d="M168.482 56.1699C168.482 75.4216 165.25 89.5773 159.009 98.5238C152.657 107.47 142.961 112 129.81 112C116.994 112 107.41 107.357 100.834 97.9575C94.3706 88.5581 91.1387 74.6289 91.1387 56.1699C91.1387 36.8049 94.2592 22.6491 100.723 13.5895C107.075 4.52983 116.771 0 129.922 0C142.627 0 152.322 4.75632 158.786 14.1557C165.25 23.5551 168.482 37.4843 168.482 56.1699ZM119.892 56.1699C119.892 68.5136 120.672 77.0071 122.121 81.5369C123.681 86.18 126.133 88.4449 129.699 88.4449C133.265 88.4449 135.828 86.0667 137.389 81.3104C138.837 76.5541 139.618 68.1739 139.618 56.1699C139.618 44.0526 138.837 35.6724 137.389 30.8028C135.828 25.9333 133.377 23.5551 129.81 23.5551C126.244 23.5551 123.681 25.9333 122.232 30.5763C120.672 35.2194 119.892 43.7128 119.892 56.1699Z" fill="white"/>
<path d="M259.62 87.7654H247.807V108.829H219.166V87.7654H176.482V66.2487L221.06 0H247.807V65.7958H259.62V87.7654ZM219.277 65.7958V53.1122C219.277 50.7341 219.389 47.5632 219.5 43.4863C219.723 39.4095 219.834 37.3711 219.946 37.1446H219.166C217.494 40.9949 215.599 44.5056 213.482 47.9029L201.557 65.909H219.277V65.7958Z" fill="white"/>
</svg>
