<svg xmlns="http://www.w3.org/2000/svg" width="15" height="18" viewBox="0 0 15 18" fill="none">
<path d="M8.42578 17.5955C10.4297 15.3326 15 9.84814 15 6.76751C15 3.03128 11.6406 0 7.5 0C3.35938 0 0 3.03128 0 6.76751C0 9.84814 4.57031 15.3326 6.57422 17.5955C7.05469 18.1348 7.94531 18.1348 8.42578 17.5955ZM7.5 4.51168C8.16304 4.51168 8.79893 4.74934 9.26777 5.1724C9.73661 5.59545 10 6.16923 10 6.76751C10 7.3658 9.73661 7.93958 9.26777 8.36263C8.79893 8.78568 8.16304 9.02335 7.5 9.02335C6.83696 9.02335 6.20107 8.78568 5.73223 8.36263C5.26339 7.93958 5 7.3658 5 6.76751C5 6.16923 5.26339 5.59545 5.73223 5.1724C6.20107 4.74934 6.83696 4.51168 7.5 4.51168Z" fill="#6EC1E4"/>
</svg>